<svg width="16" height="17" viewBox="0 0 16 17" fill="none" xmlns="http://www.w3.org/2000/svg">
<path d="M13.03 16.3337H2.97064C2.43457 16.3337 2 15.8646 2 15.286V2.71461C2 2.13603 2.43457 1.66699 2.97064 1.66699H9.50041L14.0007 6.52414V15.286C14.0007 15.8646 13.5661 16.3337 13.03 16.3337Z" fill="url(#paint0_linear_7515_4419)"/>
<path opacity="0.12" fill-rule="evenodd" clip-rule="evenodd" d="M10.7795 8.28648H5.22095V7.69824H10.7795V8.28648ZM10.7795 9.71519H5.22095V9.12695H10.7795V9.71519ZM5.22095 11.1439H10.7795V10.5557H5.22095V11.1439ZM10.7795 12.5726H5.22095V11.9844H10.7795V12.5726ZM5.22095 14.0013H10.7795V13.4131H5.22095V14.0013Z" fill="white"/>
<mask id="path-3-outside-1_7515_4419" maskUnits="userSpaceOnUse" x="3.99927" y="9.33398" width="9" height="4" fill="black">
<rect fill="white" x="3.99927" y="9.33398" width="9" height="4"/>
<path d="M4.54917 12.3533C4.50012 12.3533 4.45881 12.3366 4.42525 12.303C4.39169 12.2694 4.3749 12.2281 4.3749 12.1791V9.80908C4.3749 9.76003 4.39169 9.71872 4.42525 9.68516C4.45881 9.64902 4.50012 9.63095 4.54917 9.63095H5.43211C5.62832 9.63095 5.79226 9.65676 5.92392 9.7084C6.05817 9.75745 6.16402 9.82457 6.24147 9.90977C6.32151 9.99238 6.3783 10.084 6.41187 10.1847C6.44801 10.2854 6.46608 10.3874 6.46608 10.4907C6.46608 10.5939 6.44801 10.6959 6.41187 10.7966C6.3783 10.8973 6.32151 10.9902 6.24147 11.0754C6.16402 11.158 6.05817 11.2251 5.92392 11.2768C5.79226 11.3258 5.62832 11.3504 5.43211 11.3504H4.72731V12.1791C4.72731 12.2281 4.70923 12.2694 4.67309 12.303C4.63953 12.3366 4.59822 12.3533 4.54917 12.3533ZM4.72731 11.0173H5.39726C5.59089 11.0173 5.73933 10.9915 5.8426 10.9399C5.94587 10.8857 6.01687 10.8185 6.05559 10.7385C6.09432 10.6559 6.11368 10.5733 6.11368 10.4907C6.11368 10.4055 6.09432 10.3228 6.05559 10.2428C6.01687 10.1628 5.94587 10.0969 5.8426 10.0453C5.73933 9.99109 5.59089 9.96398 5.39726 9.96398H4.72731V11.0173ZM7.42212 12.334C7.37306 12.334 7.33176 12.3172 7.29819 12.2836C7.26463 12.2501 7.24785 12.2088 7.24785 12.1597V9.80908C7.24785 9.76003 7.26463 9.71872 7.29819 9.68516C7.33176 9.64902 7.37306 9.63095 7.42212 9.63095H8.2005C8.43285 9.63095 8.63422 9.67096 8.80462 9.75099C8.97501 9.82845 9.117 9.933 9.2306 10.0647C9.34419 10.1938 9.4281 10.3383 9.48231 10.4984C9.53911 10.6585 9.56751 10.8198 9.56751 10.9825C9.56751 11.1451 9.53911 11.3065 9.48231 11.4665C9.4281 11.6266 9.34419 11.7725 9.2306 11.9041C9.117 12.0332 8.97501 12.1378 8.80462 12.2178C8.63422 12.2953 8.43285 12.334 8.2005 12.334H7.42212ZM7.60025 12.0048H8.1579C8.37476 12.0048 8.56194 11.9622 8.71942 11.877C8.87949 11.7892 9.00212 11.6692 9.08731 11.5169C9.17509 11.362 9.21898 11.1838 9.21898 10.9825C9.21898 10.7811 9.17509 10.6042 9.08731 10.4519C9.00212 10.297 8.87949 10.177 8.71942 10.0918C8.56194 10.004 8.37476 9.96011 8.1579 9.96011H7.60025V12.0048ZM10.6014 12.3533C10.5523 12.3533 10.511 12.3366 10.4775 12.303C10.4439 12.2694 10.4271 12.2281 10.4271 12.1791V9.80908C10.4271 9.76003 10.4439 9.71872 10.4775 9.68516C10.511 9.64902 10.5523 9.63095 10.6014 9.63095H12.1078C12.1543 9.63095 12.193 9.64773 12.224 9.68129C12.2575 9.71227 12.2743 9.75099 12.2743 9.79746C12.2743 9.84394 12.2575 9.88266 12.224 9.91364C12.193 9.94462 12.1543 9.96011 12.1078 9.96011H10.7795V10.8159H11.9723C12.0187 10.8159 12.0575 10.8327 12.0884 10.8663C12.122 10.8973 12.1388 10.936 12.1388 10.9825C12.1388 11.0289 12.122 11.0677 12.0884 11.0986C12.0575 11.1296 12.0187 11.1451 11.9723 11.1451H10.7795V12.1791C10.7795 12.2281 10.7615 12.2694 10.7253 12.303C10.6917 12.3366 10.6504 12.3533 10.6014 12.3533Z"/>
</mask>
<path d="M4.54917 12.3533C4.50012 12.3533 4.45881 12.3366 4.42525 12.303C4.39169 12.2694 4.3749 12.2281 4.3749 12.1791V9.80908C4.3749 9.76003 4.39169 9.71872 4.42525 9.68516C4.45881 9.64902 4.50012 9.63095 4.54917 9.63095H5.43211C5.62832 9.63095 5.79226 9.65676 5.92392 9.7084C6.05817 9.75745 6.16402 9.82457 6.24147 9.90977C6.32151 9.99238 6.3783 10.084 6.41187 10.1847C6.44801 10.2854 6.46608 10.3874 6.46608 10.4907C6.46608 10.5939 6.44801 10.6959 6.41187 10.7966C6.3783 10.8973 6.32151 10.9902 6.24147 11.0754C6.16402 11.158 6.05817 11.2251 5.92392 11.2768C5.79226 11.3258 5.62832 11.3504 5.43211 11.3504H4.72731V12.1791C4.72731 12.2281 4.70923 12.2694 4.67309 12.303C4.63953 12.3366 4.59822 12.3533 4.54917 12.3533ZM4.72731 11.0173H5.39726C5.59089 11.0173 5.73933 10.9915 5.8426 10.9399C5.94587 10.8857 6.01687 10.8185 6.05559 10.7385C6.09432 10.6559 6.11368 10.5733 6.11368 10.4907C6.11368 10.4055 6.09432 10.3228 6.05559 10.2428C6.01687 10.1628 5.94587 10.0969 5.8426 10.0453C5.73933 9.99109 5.59089 9.96398 5.39726 9.96398H4.72731V11.0173ZM7.42212 12.334C7.37306 12.334 7.33176 12.3172 7.29819 12.2836C7.26463 12.2501 7.24785 12.2088 7.24785 12.1597V9.80908C7.24785 9.76003 7.26463 9.71872 7.29819 9.68516C7.33176 9.64902 7.37306 9.63095 7.42212 9.63095H8.2005C8.43285 9.63095 8.63422 9.67096 8.80462 9.75099C8.97501 9.82845 9.117 9.933 9.2306 10.0647C9.34419 10.1938 9.4281 10.3383 9.48231 10.4984C9.53911 10.6585 9.56751 10.8198 9.56751 10.9825C9.56751 11.1451 9.53911 11.3065 9.48231 11.4665C9.4281 11.6266 9.34419 11.7725 9.2306 11.9041C9.117 12.0332 8.97501 12.1378 8.80462 12.2178C8.63422 12.2953 8.43285 12.334 8.2005 12.334H7.42212ZM7.60025 12.0048H8.1579C8.37476 12.0048 8.56194 11.9622 8.71942 11.877C8.87949 11.7892 9.00212 11.6692 9.08731 11.5169C9.17509 11.362 9.21898 11.1838 9.21898 10.9825C9.21898 10.7811 9.17509 10.6042 9.08731 10.4519C9.00212 10.297 8.87949 10.177 8.71942 10.0918C8.56194 10.004 8.37476 9.96011 8.1579 9.96011H7.60025V12.0048ZM10.6014 12.3533C10.5523 12.3533 10.511 12.3366 10.4775 12.303C10.4439 12.2694 10.4271 12.2281 10.4271 12.1791V9.80908C10.4271 9.76003 10.4439 9.71872 10.4775 9.68516C10.511 9.64902 10.5523 9.63095 10.6014 9.63095H12.1078C12.1543 9.63095 12.193 9.64773 12.224 9.68129C12.2575 9.71227 12.2743 9.75099 12.2743 9.79746C12.2743 9.84394 12.2575 9.88266 12.224 9.91364C12.193 9.94462 12.1543 9.96011 12.1078 9.96011H10.7795V10.8159H11.9723C12.0187 10.8159 12.0575 10.8327 12.0884 10.8663C12.122 10.8973 12.1388 10.936 12.1388 10.9825C12.1388 11.0289 12.122 11.0677 12.0884 11.0986C12.0575 11.1296 12.0187 11.1451 11.9723 11.1451H10.7795V12.1791C10.7795 12.2281 10.7615 12.2694 10.7253 12.303C10.6917 12.3366 10.6504 12.3533 10.6014 12.3533Z" fill="white"/>
<path d="M4.42525 12.303L4.49457 12.2337L4.42525 12.303ZM4.42525 9.68516L4.49462 9.75453L4.49709 9.75187L4.42525 9.68516ZM5.92392 9.7084L5.88812 9.79969L5.89028 9.80048L5.92392 9.7084ZM6.24147 9.90977L6.16889 9.97575L6.17106 9.97798L6.24147 9.90977ZM6.41187 10.1847L6.31883 10.2157L6.31959 10.2178L6.41187 10.1847ZM6.41187 10.7966L6.31957 10.7634L6.31886 10.7656L6.41187 10.7966ZM6.24147 11.0754L6.17002 11.0083L6.16995 11.0084L6.24147 11.0754ZM5.92392 11.2768L5.95815 11.3687L5.95912 11.3683L5.92392 11.2768ZM4.72731 11.3504V11.2523H4.62927V11.3504H4.72731ZM4.67309 12.303L4.60633 12.2311L4.60377 12.2337L4.67309 12.303ZM4.72731 11.0173H4.62927V11.1154H4.72731V11.0173ZM5.8426 10.9399L5.88645 11.0276L5.88817 11.0267L5.8426 10.9399ZM6.05559 10.7385L6.14385 10.7812L6.14436 10.7801L6.05559 10.7385ZM5.8426 10.0453L5.79702 10.1321L5.79876 10.133L5.8426 10.0453ZM4.72731 9.96398V9.86595H4.62927V9.96398H4.72731ZM4.54917 12.2553C4.52515 12.2553 4.50907 12.2482 4.49457 12.2337L4.35592 12.3723C4.40855 12.425 4.47509 12.4514 4.54917 12.4514V12.2553ZM4.49457 12.2337C4.48007 12.2192 4.47294 12.2031 4.47294 12.1791H4.27687C4.27687 12.2532 4.3033 12.3197 4.35592 12.3723L4.49457 12.2337ZM4.47294 12.1791V9.80908H4.27687V12.1791H4.47294ZM4.47294 9.80908C4.47294 9.78506 4.48007 9.76898 4.49457 9.75449L4.35592 9.61584C4.3033 9.66846 4.27687 9.735 4.27687 9.80908H4.47294ZM4.49709 9.75187C4.51222 9.73558 4.52755 9.72898 4.54917 9.72898V9.53291C4.47268 9.53291 4.4054 9.56245 4.35341 9.61845L4.49709 9.75187ZM4.54917 9.72898H5.43211V9.53291H4.54917V9.72898ZM5.43211 9.72898C5.62048 9.72898 5.77136 9.75387 5.88813 9.79967L5.95972 9.61712C5.81316 9.55965 5.63616 9.53291 5.43211 9.53291V9.72898ZM5.89028 9.80048C6.01317 9.84538 6.10441 9.90475 6.16893 9.97572L6.31402 9.84382C6.22363 9.7444 6.10318 9.66951 5.95757 9.61631L5.89028 9.80048ZM6.17106 9.97798C6.24174 10.0509 6.29032 10.1301 6.31886 10.2157L6.50487 10.1537C6.46628 10.0379 6.40128 9.93382 6.31189 9.84155L6.17106 9.97798ZM6.31959 10.2178C6.35206 10.3083 6.36804 10.3991 6.36804 10.4907H6.56412C6.56412 10.3757 6.54396 10.2625 6.50414 10.1516L6.31959 10.2178ZM6.36804 10.4907C6.36804 10.5822 6.35206 10.673 6.31959 10.7635L6.50414 10.8297C6.54396 10.7188 6.56412 10.6056 6.56412 10.4907H6.36804ZM6.31886 10.7656C6.29022 10.8515 6.24133 10.9324 6.17002 11.0083L6.31293 11.1425C6.40168 11.0481 6.46639 10.943 6.50487 10.8276L6.31886 10.7656ZM6.16995 11.0084C6.10496 11.0777 6.01279 11.1376 5.88873 11.1853L5.95912 11.3683C6.10355 11.3127 6.22308 11.2384 6.313 11.1425L6.16995 11.0084ZM5.8897 11.1849C5.77238 11.2286 5.62092 11.2523 5.43211 11.2523V11.4484C5.63572 11.4484 5.81213 11.423 5.95815 11.3686L5.8897 11.1849ZM5.43211 11.2523H4.72731V11.4484H5.43211V11.2523ZM4.62927 11.3504V12.1791H4.82535V11.3504H4.62927ZM4.62927 12.1791C4.62927 12.2007 4.62267 12.216 4.60638 12.2312L4.7398 12.3748C4.7958 12.3229 4.82535 12.2556 4.82535 12.1791H4.62927ZM4.60377 12.2337C4.58927 12.2482 4.57319 12.2553 4.54917 12.2553V12.4514C4.62325 12.4514 4.68979 12.425 4.74242 12.3723L4.60377 12.2337ZM4.72731 11.1154H5.39726V10.9193H4.72731V11.1154ZM5.39726 11.1154C5.59709 11.1154 5.76331 11.0891 5.88645 11.0276L5.79876 10.8522C5.71536 10.8939 5.58468 10.9193 5.39726 10.9193V11.1154ZM5.88817 11.0267C6.00424 10.9657 6.09349 10.8852 6.14384 10.7812L5.96734 10.6958C5.94024 10.7518 5.88749 10.8056 5.79703 10.8531L5.88817 11.0267ZM6.14436 10.7801C6.18855 10.6858 6.21172 10.5891 6.21172 10.4907H6.01564C6.01564 10.5574 6.00009 10.6259 5.96682 10.6969L6.14436 10.7801ZM6.21172 10.4907C6.21172 10.39 6.18872 10.2929 6.14384 10.2001L5.96734 10.2855C5.99991 10.3528 6.01564 10.4209 6.01564 10.4907H6.21172ZM6.14384 10.2001C6.0932 10.0954 6.00326 10.016 5.88645 9.95762L5.79876 10.133C5.88847 10.1779 5.94053 10.2301 5.96734 10.2855L6.14384 10.2001ZM5.88817 9.9585C5.76447 9.89356 5.59752 9.86595 5.39726 9.86595V10.062C5.58425 10.062 5.71419 10.0886 5.79703 10.1321L5.88817 9.9585ZM5.39726 9.86595H4.72731V10.062H5.39726V9.86595ZM4.62927 9.96398V11.0173H4.82535V9.96398H4.62927ZM7.29819 12.2836L7.36752 12.2143L7.29819 12.2836ZM7.29819 9.68516L7.36757 9.75453L7.37004 9.75187L7.29819 9.68516ZM8.80462 9.75099L8.76293 9.83974L8.76405 9.84025L8.80462 9.75099ZM9.2306 10.0647L9.15636 10.1287L9.157 10.1294L9.2306 10.0647ZM9.48231 10.4984L9.38945 10.5299L9.38992 10.5312L9.48231 10.4984ZM9.48231 11.4665L9.38991 11.4337L9.38946 11.4351L9.48231 11.4665ZM9.2306 11.9041L9.3042 11.9689L9.30483 11.9682L9.2306 11.9041ZM8.80462 12.2178L8.84519 12.3071L8.8463 12.3065L8.80462 12.2178ZM7.60025 12.0048H7.50221V12.1029H7.60025V12.0048ZM8.71942 11.877L8.76607 11.9633L8.76656 11.963L8.71942 11.877ZM9.08731 11.5169L9.00202 11.4685L9.00175 11.469L9.08731 11.5169ZM9.08731 10.4519L9.00139 10.4992L9.00237 10.5009L9.08731 10.4519ZM8.71942 10.0918L8.67168 10.1774L8.67336 10.1783L8.71942 10.0918ZM7.60025 9.96011V9.86207H7.50221V9.96011H7.60025ZM7.42212 12.2359C7.39809 12.2359 7.38202 12.2288 7.36752 12.2143L7.22887 12.353C7.2815 12.4056 7.34804 12.432 7.42212 12.432V12.2359ZM7.36752 12.2143C7.35302 12.1998 7.34589 12.1837 7.34589 12.1597H7.14981C7.14981 12.2338 7.17625 12.3003 7.22887 12.353L7.36752 12.2143ZM7.34589 12.1597V9.80908H7.14981V12.1597H7.34589ZM7.34589 9.80908C7.34589 9.78506 7.35302 9.76898 7.36752 9.75449L7.22887 9.61584C7.17625 9.66846 7.14981 9.735 7.14981 9.80908H7.34589ZM7.37004 9.75187C7.38517 9.73558 7.4005 9.72898 7.42212 9.72898V9.53291C7.34563 9.53291 7.27835 9.56245 7.22635 9.61845L7.37004 9.75187ZM7.42212 9.72898H8.2005V9.53291H7.42212V9.72898ZM8.2005 9.72898C8.42174 9.72898 8.60827 9.76709 8.76294 9.83973L8.8463 9.66226C8.66018 9.57484 8.44396 9.53291 8.2005 9.53291V9.72898ZM8.76405 9.84025C8.92253 9.91228 9.05273 10.0086 9.15637 10.1287L9.30483 10.0006C9.18128 9.85742 9.02749 9.74461 8.84519 9.66174L8.76405 9.84025ZM9.157 10.1294C9.26219 10.249 9.33947 10.3823 9.38946 10.5298L9.57517 10.4669C9.51673 10.2944 9.4262 10.1385 9.3042 9.9999L9.157 10.1294ZM9.38992 10.5312C9.44315 10.6812 9.46947 10.8315 9.46947 10.9825H9.66555C9.66555 10.8082 9.63507 10.6357 9.57471 10.4656L9.38992 10.5312ZM9.46947 10.9825C9.46947 11.1335 9.44315 11.2837 9.38992 11.4337L9.57471 11.4993C9.63507 11.3292 9.66555 11.1568 9.66555 10.9825H9.46947ZM9.38946 11.4351C9.33941 11.5828 9.26195 11.7177 9.15637 11.8401L9.30483 11.9682C9.42643 11.8272 9.51678 11.6704 9.57517 11.498L9.38946 11.4351ZM9.157 11.8394C9.0531 11.9574 8.92232 12.0542 8.76294 12.1291L8.8463 12.3065C9.0277 12.2213 9.18091 12.109 9.3042 11.9689L9.157 11.8394ZM8.76405 12.1286C8.60908 12.199 8.42214 12.2359 8.2005 12.2359V12.432C8.44356 12.432 8.65937 12.3915 8.84519 12.3071L8.76405 12.1286ZM8.2005 12.2359H7.42212V12.432H8.2005V12.2359ZM7.60025 12.1029H8.1579V11.9068H7.60025V12.1029ZM8.1579 12.1029C8.38764 12.1029 8.59153 12.0577 8.76607 11.9633L8.67277 11.7908C8.53234 11.8668 8.36189 11.9068 8.1579 11.9068V12.1029ZM8.76656 11.963C8.94198 11.8668 9.07828 11.7339 9.17288 11.5647L9.00175 11.469C8.92596 11.6045 8.81699 11.7117 8.67228 11.7911L8.76656 11.963ZM9.17261 11.5652C9.26979 11.3937 9.31702 11.1985 9.31702 10.9825H9.12094C9.12094 11.1692 9.08039 11.3302 9.00202 11.4685L9.17261 11.5652ZM9.31702 10.9825C9.31702 10.7664 9.2698 10.5722 9.17226 10.403L9.00237 10.5009C9.08038 10.6363 9.12094 10.7957 9.12094 10.9825H9.31702ZM9.17322 10.4047C9.07859 10.2326 8.94191 10.0991 8.76548 10.0052L8.67336 10.1783C8.81706 10.2548 8.92564 10.3614 9.00141 10.4992L9.17322 10.4047ZM8.76715 10.0061C8.59238 9.90873 8.38809 9.86207 8.1579 9.86207V10.0582C8.36144 10.0582 8.53149 10.0993 8.67169 10.1774L8.76715 10.0061ZM8.1579 9.86207H7.60025V10.0582H8.1579V9.86207ZM7.50221 9.96011V12.0048H7.69829V9.96011H7.50221ZM10.4775 12.303L10.5468 12.2337L10.4775 12.303ZM10.4775 9.68516L10.5468 9.75453L10.5493 9.75187L10.4775 9.68516ZM12.224 9.68129L12.1517 9.748L12.1575 9.75333L12.224 9.68129ZM12.224 9.91364L12.1574 9.84154L12.1547 9.84432L12.224 9.91364ZM10.7795 9.96011V9.86207H10.6815V9.96011H10.7795ZM10.7795 10.8159H10.6815V10.914H10.7795V10.8159ZM12.0884 10.8663L12.0162 10.933L12.0219 10.9383L12.0884 10.8663ZM12.0884 11.0986L12.0219 11.0265L12.0191 11.0293L12.0884 11.0986ZM10.7795 11.1451V11.0471H10.6815V11.1451H10.7795ZM10.7253 12.303L10.6586 12.2311L10.656 12.2337L10.7253 12.303ZM10.6014 12.2553C10.5774 12.2553 10.5613 12.2482 10.5468 12.2337L10.4081 12.3723C10.4608 12.425 10.5273 12.4514 10.6014 12.4514V12.2553ZM10.5468 12.2337C10.5323 12.2192 10.5252 12.2031 10.5252 12.1791H10.3291C10.3291 12.2532 10.3555 12.3197 10.4081 12.3723L10.5468 12.2337ZM10.5252 12.1791V9.80908H10.3291V12.1791H10.5252ZM10.5252 9.80908C10.5252 9.78506 10.5323 9.76898 10.5468 9.75449L10.4081 9.61584C10.3555 9.66846 10.3291 9.735 10.3291 9.80908H10.5252ZM10.5493 9.75187C10.5644 9.73558 10.5798 9.72898 10.6014 9.72898V9.53291C10.5249 9.53291 10.4576 9.56245 10.4056 9.61845L10.5493 9.75187ZM10.6014 9.72898H12.1078V9.53291H10.6014V9.72898ZM12.1078 9.72898C12.1275 9.72898 12.1399 9.73473 12.1519 9.74779L12.296 9.61479C12.2461 9.56073 12.1811 9.53291 12.1078 9.53291V9.72898ZM12.1575 9.75333C12.1705 9.76538 12.1763 9.77781 12.1763 9.79746H12.3724C12.3724 9.72417 12.3445 9.65915 12.2905 9.60925L12.1575 9.75333ZM12.1763 9.79746C12.1763 9.81711 12.1705 9.82955 12.1575 9.8416L12.2905 9.98568C12.3445 9.93578 12.3724 9.87076 12.3724 9.79746H12.1763ZM12.1547 9.84432C12.1433 9.85571 12.13 9.86207 12.1078 9.86207V10.0582C12.1785 10.0582 12.2427 10.0335 12.2933 9.98297L12.1547 9.84432ZM12.1078 9.86207H10.7795V10.0582H12.1078V9.86207ZM10.6815 9.96011V10.8159H10.8776V9.96011H10.6815ZM10.7795 10.914H11.9723V10.7179H10.7795V10.914ZM11.9723 10.914C11.9919 10.914 12.0044 10.9197 12.0164 10.9328L12.1605 10.7998C12.1106 10.7457 12.0456 10.7179 11.9723 10.7179V10.914ZM12.0219 10.9383C12.035 10.9504 12.0408 10.9628 12.0408 10.9825H12.2368C12.2368 10.9092 12.209 10.8442 12.1549 10.7942L12.0219 10.9383ZM12.0408 10.9825C12.0408 11.0021 12.035 11.0145 12.0219 11.0266L12.1549 11.1707C12.209 11.1208 12.2368 11.0558 12.2368 10.9825H12.0408ZM12.0191 11.0293C12.0077 11.0407 11.9945 11.0471 11.9723 11.0471V11.2432C12.043 11.2432 12.1072 11.2185 12.1578 11.168L12.0191 11.0293ZM11.9723 11.0471H10.7795V11.2432H11.9723V11.0471ZM10.6815 11.1451V12.1791H10.8776V11.1451H10.6815ZM10.6815 12.1791C10.6815 12.2007 10.6749 12.216 10.6586 12.2312L10.792 12.3748C10.848 12.3229 10.8776 12.2556 10.8776 12.1791H10.6815ZM10.656 12.2337C10.6415 12.2482 10.6254 12.2553 10.6014 12.2553V12.4514C10.6755 12.4514 10.742 12.425 10.7946 12.3723L10.656 12.2337Z" fill="white" mask="url(#path-3-outside-1_7515_4419)"/>
<mask id="mask0_7515_4419" style="mask-type:alpha" maskUnits="userSpaceOnUse" x="2" y="1" width="13" height="16">
<path d="M13.03 16.3337H2.97064C2.43457 16.3337 2 15.8646 2 15.286V2.71461C2 2.13603 2.43457 1.66699 2.97064 1.66699H9.50041L14.0007 6.52414V15.286C14.0007 15.8646 13.5661 16.3337 13.03 16.3337Z" fill="url(#paint1_linear_7515_4419)"/>
</mask>
<g mask="url(#mask0_7515_4419)">
<ellipse opacity="0.08" cx="0.786807" cy="1.35784" rx="9.86029" ry="10.2143" fill="url(#paint2_linear_7515_4419)"/>
<ellipse opacity="0.08" cx="0.787152" cy="1.35789" rx="6.19853" ry="6.40476" fill="url(#paint3_linear_7515_4419)"/>
</g>
<g filter="url(#filter0_d_7515_4419)">
<path d="M13.999 6.52413H10.5777C9.9821 6.52413 9.49927 6.0413 9.49927 5.4457V1.66699L13.999 6.52413Z" fill="url(#paint4_linear_7515_4419)"/>
</g>
<defs>
<filter id="filter0_d_7515_4419" x="8.37182" y="0.490522" width="6.95074" height="7.3084" filterUnits="userSpaceOnUse" color-interpolation-filters="sRGB">
<feFlood flood-opacity="0" result="BackgroundImageFix"/>
<feColorMatrix in="SourceAlpha" type="matrix" values="0 0 0 0 0 0 0 0 0 0 0 0 0 0 0 0 0 0 127 0" result="hardAlpha"/>
<feOffset dx="0.0980392" dy="0.0490196"/>
<feGaussianBlur stdDeviation="0.612745"/>
<feColorMatrix type="matrix" values="0 0 0 0 0 0 0 0 0 0 0 0 0 0 0 0 0 0 0.33 0"/>
<feBlend mode="normal" in2="BackgroundImageFix" result="effect1_dropShadow_7515_4419"/>
<feBlend mode="normal" in="SourceGraphic" in2="effect1_dropShadow_7515_4419" result="shape"/>
</filter>
<linearGradient id="paint0_linear_7515_4419" x1="8.00033" y1="1.66699" x2="8.00033" y2="16.3337" gradientUnits="userSpaceOnUse">
<stop stop-color="#FF7981"/>
<stop offset="1" stop-color="#E85567"/>
</linearGradient>
<linearGradient id="paint1_linear_7515_4419" x1="8.00033" y1="1.66699" x2="8.00033" y2="16.3337" gradientUnits="userSpaceOnUse">
<stop stop-color="#FF7981"/>
<stop offset="1" stop-color="#E85567"/>
</linearGradient>
<linearGradient id="paint2_linear_7515_4419" x1="1.50274" y1="1.70885" x2="4.91644" y2="10.1027" gradientUnits="userSpaceOnUse">
<stop stop-color="white" stop-opacity="0"/>
<stop offset="1" stop-color="white"/>
</linearGradient>
<linearGradient id="paint3_linear_7515_4419" x1="1.23721" y1="1.57798" x2="3.37384" y2="6.84503" gradientUnits="userSpaceOnUse">
<stop stop-color="white" stop-opacity="0"/>
<stop offset="1" stop-color="white"/>
</linearGradient>
<linearGradient id="paint4_linear_7515_4419" x1="11.7491" y1="1.66699" x2="11.7491" y2="6.52413" gradientUnits="userSpaceOnUse">
<stop stop-color="#D03954"/>
<stop offset="1" stop-color="#C02A3C"/>
</linearGradient>
</defs>
</svg>
