<svg width="20" height="20" viewBox="0 0 20 20" fill="none" xmlns="http://www.w3.org/2000/svg">
<path d="M16.6667 5.8335H9.16675" stroke="#323A3A" stroke-width="1.2" stroke-linecap="round" stroke-linejoin="round"/>
<path d="M11.6667 14.1665H4.16675" stroke="#323A3A" stroke-width="1.2" stroke-linecap="round" stroke-linejoin="round"/>
<path d="M14.1667 16.6665C15.5475 16.6665 16.6667 15.5472 16.6667 14.1665C16.6667 12.7858 15.5475 11.6665 14.1667 11.6665C12.786 11.6665 11.6667 12.7858 11.6667 14.1665C11.6667 15.5472 12.786 16.6665 14.1667 16.6665Z" stroke="#323A3A" stroke-width="1.2" stroke-linecap="round" stroke-linejoin="round"/>
<path d="M5.83325 8.3335C7.21396 8.3335 8.33325 7.21421 8.33325 5.8335C8.33325 4.45278 7.21396 3.3335 5.83325 3.3335C4.45254 3.3335 3.33325 4.45278 3.33325 5.8335C3.33325 7.21421 4.45254 8.3335 5.83325 8.3335Z" stroke="#323A3A" stroke-width="1.2" stroke-linecap="round" stroke-linejoin="round"/>
</svg>
