<svg width="1440" height="80" viewBox="0 0 1440 80" fill="none" xmlns="http://www.w3.org/2000/svg">
<rect width="1440" height="104" transform="translate(0 -12)" fill="url(#paint0_linear_13009_2820)"/>
<g clip-path="url(#clip0_13009_2820)">
<mask id="mask0_13009_2820" style="mask-type:alpha" maskUnits="userSpaceOnUse" x="0" y="-177" width="1440" height="434">
<path d="M459.474 -51H459.473C234.737 -51 117.895 -176.667 117.895 -176.667H1440V256.667C1353.16 256.667 1202.78 234.035 1143.16 138.583C1024.74 -50.9999 684.211 -51 459.474 -51Z" fill="url(#paint1_linear_13009_2820)"/>
<path d="M1440 256.667V128.292C937.895 -208.625 829.326 -133.875 748.365 -2.12014C640.177 173.945 127.447 225.944 0 214.907V256.667H1440Z" fill="url(#paint2_linear_13009_2820)"/>
<path d="M1440 87.125V256.667H0V-74.6035C97.1261 -101.146 208.1 -124.841 394.211 -74.6035C431.816 -64.4526 501.604 -40.9012 536.758 -30.525C722.525 24.3057 741.579 87.125 1440 87.125Z" fill="url(#paint3_linear_13009_2820)"/>
<path d="M1317.75 256.667H1440C1425.65 249.502 1403.27 241.496 1317.75 239.582C620.422 223.973 437.081 100.266 251.053 -40.2856C221.974 -62.2562 192.86 -84.2525 161.754 -105.746C102.795 -146.485 48.7543 -168.351 0 -176.667V256.667H1317.75Z" fill="url(#paint4_linear_13009_2820)"/>
</mask>
<g mask="url(#mask0_13009_2820)">
<rect x="-181.053" y="-282.833" width="1758.95" height="651.083" fill="white"/>
</g>
</g>
<defs>
<linearGradient id="paint0_linear_13009_2820" x1="719.962" y1="290.979" x2="704.847" y2="-96.1995" gradientUnits="userSpaceOnUse">
<stop stop-color="#628D12"/>
<stop offset="1" stop-color="#8ED902"/>
</linearGradient>
<linearGradient id="paint1_linear_13009_2820" x1="633.684" y1="-1217.21" x2="1177.26" y2="107.245" gradientUnits="userSpaceOnUse">
<stop stop-color="white"/>
<stop offset="1" stop-color="white" stop-opacity="0"/>
</linearGradient>
<linearGradient id="paint2_linear_13009_2820" x1="507.368" y1="970.042" x2="505.139" y2="-100.291" gradientUnits="userSpaceOnUse">
<stop stop-color="white"/>
<stop offset="1" stop-color="white" stop-opacity="0"/>
</linearGradient>
<linearGradient id="paint3_linear_13009_2820" x1="446.315" y1="-813.125" x2="470.964" y2="120.766" gradientUnits="userSpaceOnUse">
<stop stop-color="white"/>
<stop offset="1" stop-color="white" stop-opacity="0"/>
</linearGradient>
<linearGradient id="paint4_linear_13009_2820" x1="617.895" y1="-1390.54" x2="352.979" y2="190.378" gradientUnits="userSpaceOnUse">
<stop stop-color="white"/>
<stop offset="1" stop-color="white" stop-opacity="0"/>
</linearGradient>
<clipPath id="clip0_13009_2820">
<rect width="1440" height="80" fill="white"/>
</clipPath>
</defs>
</svg>
