<svg width="121" height="120" viewBox="0 0 121 120" fill="none" xmlns="http://www.w3.org/2000/svg">
<ellipse cx="58.2785" cy="59.7802" rx="45.6799" ry="47.9388" fill="#F7FAF5"/>
<ellipse cx="15.4618" cy="27.4113" rx="2.86313" ry="3.00471" fill="#F7FAF5"/>
<ellipse cx="16.3729" cy="90.6467" rx="5.07554" ry="5.32653" fill="#F7FAF5"/>
<ellipse cx="107.212" cy="85.4568" rx="5.07554" ry="5.32653" fill="#F7FAF5"/>
<ellipse cx="97.3211" cy="91.4662" rx="2.4727" ry="2.59498" fill="#F7FAF5"/>
<path d="M109.596 69.0212L110.393 72.9731L114.105 73.8217L110.393 74.6703L109.596 78.6221L108.799 74.6703L105.087 73.8217L108.799 72.9731L109.596 69.0212Z" fill="white"/>
<path d="M104.43 30.6513C104.574 29.9382 105.593 29.9382 105.737 30.6513L105.796 30.941C105.847 31.1979 106.045 31.4007 106.3 31.4591L106.75 31.5618C107.441 31.7197 107.441 32.7037 106.75 32.8616L106.3 32.9643C106.045 33.0228 105.847 33.2255 105.796 33.4824L105.737 33.7721C105.593 34.4852 104.574 34.4852 104.43 33.7721L104.372 33.4824C104.32 33.2255 104.122 33.0228 103.867 32.9643L103.417 32.8616C102.727 32.7037 102.727 31.7197 103.417 31.5618L103.867 31.4591C104.122 31.4007 104.32 31.1979 104.372 30.941L104.43 30.6513Z" fill="#A5C982"/>
<path d="M9.91525 63.7032C10.0591 62.9901 11.0784 62.9901 11.2223 63.7032L11.6432 65.7901C11.695 66.047 11.8926 66.2498 12.1481 66.3082L14.2856 66.7969C14.9763 66.9548 14.9763 67.9387 14.2856 68.0967L12.1481 68.5853C11.8926 68.6437 11.695 68.8465 11.6432 69.1034L11.2223 71.1903C11.0784 71.9035 10.0591 71.9035 9.91525 71.1903L9.49433 69.1034C9.44251 68.8465 9.24493 68.6437 8.98941 68.5853L6.85195 68.0967C6.16117 67.9387 6.16117 66.9548 6.85195 66.7969L8.98941 66.3082C9.24493 66.2498 9.44251 66.047 9.49433 65.7901L9.91525 63.7032Z" fill="#A5C982"/>
<path d="M27.4737 16.0229C27.092 15.9377 27.092 15.3937 27.4737 15.3085L28.6714 15.0412C28.8119 15.0098 28.921 14.899 28.9501 14.758L29.1943 13.5763C29.2747 13.187 29.8308 13.187 29.9112 13.5763L30.1554 14.758C30.1845 14.899 30.2936 15.0098 30.4341 15.0412L31.6318 15.3085C32.0135 15.3937 32.0135 15.9377 31.6318 16.0229L30.4341 16.2902C30.2936 16.3216 30.1845 16.4324 30.1554 16.5734L29.9112 17.7551C29.8308 18.1444 29.2747 18.1444 29.1943 17.7551L28.9501 16.5734C28.921 16.4324 28.8119 16.3216 28.6714 16.2902L27.4737 16.0229Z" fill="#A5C982"/>
<path d="M90.5684 48.8864C90.5684 64.6974 77.6284 77.5227 61.6563 77.5227C45.6841 77.5227 32.7441 64.6974 32.7441 48.8864C32.7441 33.0754 45.6841 20.25 61.6563 20.25C77.6284 20.25 90.5684 33.0754 90.5684 48.8864Z" fill="#E5F0DB" stroke="#A5C982"/>
<path d="M85.8834 48.8863C85.8834 62.134 75.0411 72.8815 61.6564 72.8815C48.2718 72.8815 37.4294 62.134 37.4294 48.8863C37.4294 35.6385 48.2718 24.8911 61.6564 24.8911C75.0411 24.8911 85.8834 35.6385 85.8834 48.8863Z" fill="#FAFCF8" stroke="#A5C982"/>
<path d="M51.3915 75.7809L47.4329 82.1402" stroke="#A5C982"/>
<path d="M46.7391 73.7184L42.9221 79.3902" stroke="#A5C982"/>
<path d="M48.0504 83.9531L36.9924 107.888C35.1592 111.856 30.5679 113.52 26.8439 111.566C22.6033 109.341 21.5118 103.554 24.6058 99.7007L41.2115 79.0209C41.7308 78.3741 42.6293 78.2338 43.2902 78.6962L47.4543 81.6095C48.184 82.1201 48.4373 83.1157 48.0504 83.9531Z" fill="#E5F0DB" stroke="#A5C982" stroke-width="0.666667"/>
<path d="M54.6335 45.1027C54.6741 43.4207 54.0332 42.0392 53.2022 42.0171C52.3711 41.995 51.6644 43.3407 51.6238 45.0227C51.5832 46.7048 52.224 48.0863 53.0551 48.1084C53.8862 48.1304 54.5929 46.7848 54.6335 45.1027Z" fill="#A5C982"/>
<path d="M71.9677 45.5936C72.0087 43.8948 71.3682 42.4998 70.5371 42.4777C69.706 42.4556 68.999 43.8148 68.958 45.5136C68.917 47.2123 69.5575 48.6074 70.3886 48.6295C71.2197 48.6516 71.9267 47.2923 71.9677 45.5936Z" fill="#A5C982"/>
<path d="M67.0301 60.9116C66.971 60.9202 66.9108 60.916 66.8533 60.8993C66.7958 60.8826 66.7421 60.8538 66.6956 60.8146L65.9943 60.2249C64.8695 59.2821 63.4807 58.7531 62.0416 58.7195C60.6024 58.6858 59.1925 59.1493 58.0289 60.0386L57.3032 60.5948C57.2565 60.6306 57.2036 60.6563 57.1475 60.6706C57.0914 60.6849 57.0331 60.6875 56.976 60.6781C56.9189 60.6688 56.8642 60.6478 56.8149 60.6162C56.7655 60.5847 56.7226 60.5433 56.6885 60.4943C56.6545 60.4454 56.6299 60.3899 56.6163 60.3309C56.6027 60.272 56.6002 60.2109 56.6091 60.151C56.618 60.0911 56.6381 60.0336 56.6681 59.9819C56.6982 59.9301 56.7376 59.8851 56.7843 59.8493L57.51 59.2931C58.8298 58.2844 60.4288 57.7588 62.0611 57.7969C63.6933 57.8351 65.2685 58.435 66.5441 59.5044L67.2455 60.094C67.3126 60.1505 67.3625 60.2263 67.3889 60.3122C67.4154 60.3981 67.4173 60.4902 67.3943 60.5772C67.3714 60.6642 67.3247 60.7422 67.26 60.8017C67.1952 60.8611 67.1153 60.8993 67.0301 60.9116Z" fill="#A5C982"/>
</svg>
