<svg width="20" height="20" viewBox="0 0 20 20" fill="none" xmlns="http://www.w3.org/2000/svg">
<path fill-rule="evenodd" clip-rule="evenodd" d="M20 10C20 15.5228 15.5228 20 10 20C4.47715 20 0 15.5228 0 10C0 4.47715 4.47715 0 10 0C15.5228 0 20 4.47715 20 10ZM6.96963 6.96965C7.26252 6.67676 7.73739 6.67676 8.0303 6.96965L10 8.9393L11.9696 6.96967C12.2625 6.67678 12.7374 6.67678 13.0303 6.96967C13.3232 7.26256 13.3232 7.73744 13.0303 8.0303L11.0606 10L13.0303 11.9696C13.3232 12.2625 13.3232 12.7374 13.0303 13.0303C12.7374 13.3232 12.2625 13.3232 11.9696 13.0303L10 11.0607L8.0303 13.0303C7.73742 13.3232 7.26254 13.3232 6.96965 13.0303C6.67676 12.7374 6.67676 12.2625 6.96965 11.9697L8.9393 10L6.96963 8.0303C6.67673 7.73742 6.67673 7.26254 6.96963 6.96965Z" fill="#D03D0E"/>
</svg>
